:FULLY-SPECIFIED
:FORCE-ALL-JOINTS-BE-3DOF
:DEGREES
408
root 4.49708 16.2801 -11.2323 3.62699 -35.8427 -4.33464
lfemur -28.6435 2.82532 -6.61503
ltibia 42.6588 -0 0
lfoot -10.8475 14.252 0.10462
ltoes -1.15994 0 0
rfemur -32.493 -14.6879 22.29
rtibia 69.3048 -0 0
rfoot 4.50625 -0.774846 -0.0504196
rtoes 26.5785 -0 0
lowerback 4.95874 4.06625 1.39786
upperback 1.72247 5.44796 -1.36262
thorax -0.740641 2.72695 -2.45329
lowerneck -6.21187 2.2871 7.73533
upperneck 4.16389 2.37447 0.24687
head 2.55156 1.30945 -1.17594
lclavicle -1.63003e-014 -1.43125e-014 0
lhumerus -44.7393 -19.1012 94.3619
lradius 50.1042 -0 0
lwrist 17.3176 0 0
lhand -16.5493 3.17375 0.0552269
lfingers 7.12502 -0 0
lthumb 9.66946 32.9139 0.0507584
rclavicle -1.63003e-014 -1.43125e-014 0
rhumerus -45.5427 9.42348 -91.3299
rradius 63.2588 -0 0
rwrist 9.34285 0 0
rhand -21.8647 -18.165 0.0205592
rfingers 7.12502 -0 0
rthumb 4.53878 -48.0448 0.0212973
409
root 4.44219 16.2613 -11.1297 3.43223 -36.1001 -4.22883
lfemur -28.2617 3.26048 -6.65913
ltibia 43.4381 -0 0
lfoot -11.598 13.9394 0.109768
ltoes -1.26728 0 0
rfemur -33.7205 -14.111 21.4345
rtibia 68.6087 -0 0
rfoot 4.88202 -0.594545 -0.0705966
rtoes 26.1014 -0 0
lowerback 5.12489 3.9927 1.45402
upperback 1.75681 5.35288 -1.38848
thorax -0.795663 2.67913 -2.51703
lowerneck -6.22482 2.51182 7.91663
upperneck 4.22156 2.67362 -0.0479426
head 2.59769 1.45371 -1.29216
lclavicle -1.63003e-014 -1.43125e-014 0
lhumerus -44.7363 -19.1066 94.4238
lradius 49.8752 -0 0
lwrist 17.0802 0 0
lhand -16.9494 2.91239 0.0605574
lfingers 7.12502 -0 0
lthumb 9.28335 32.6677 0.0555722
rclavicle -1.63003e-014 -1.43125e-014 0
rhumerus -45.5801 9.14402 -91.0732
rradius 63.7919 -0 0
rwrist 9.55352 0 0
rhand -22.5183 -18.2282 0.0206562
rfingers 7.12502 -0 0
rthumb 3.90766 -48.1173 0.0215657
410
root 4.38632 16.2418 -11.0295 3.24702 -36.313 -4.13347
lfemur -27.9096 3.73773 -6.69879
ltibia 44.259 -0 0
lfoot -12.3675 13.5883 0.111797
ltoes -1.36392 0 0
rfemur -34.9457 -13.5139 20.5532
rtibia 67.8371 -0 0
rfoot 5.21293 -0.418255 -0.0909755
rtoes 25.5515 -0 0
lowerback 5.29473 3.91371 1.51658
upperback 1.79246 5.25119 -1.41035
thorax -0.851616 2.62795 -2.58017
lowerneck -6.23978 2.7346 8.09386
upperneck 4.27032 2.97075 -0.345896
head 2.64164 1.59666 -1.40868
lclavicle -1.63003e-014 -1.43125e-014 0
lhumerus -44.7227 -19.1236 94.488
lradius 49.6516 -0 0
lwrist 16.8321 0 0
lhand -17.367 2.64166 0.0640861
lfingers 7.12502 -0 0
lthumb 8.88037 32.4128 0.0587407
rclavicle -1.63003e-014 -1.43125e-014 0
rhumerus -45.6108 8.85814 -90.8154
rradius 64.329 -0 0
rwrist 9.77165 0 0
rhand -23.1744 -18.3005 0.0204406
rfingers 7.12502 -0 0
rthumb 3.27399 -48.1984 0.0214935
411
root 4.32928 16.2216 -10.9316 3.07425 -36.4732 -4.05224
lfemur -27.5924 4.24801 -6.72955
ltibia 45.1112 -0 0
lfoot -13.1484 13.2015 0.110495
ltoes -1.45466 0 0
rfemur -36.1501 -12.9078 19.6535
rtibia 67.0024 -0 0
rfoot 5.4967 -0.251819 -0.110401
rtoes 24.9221 -0 0
lowerback 5.46597 3.83028 1.58461
upperback 1.82854 5.14426 -1.42794
thorax -0.908158 2.57405 -2.64181
lowerneck -6.25648 2.9524 8.26493
upperneck 4.30975 3.26176 -0.643059
head 2.68288 1.73635 -1.52401
lclavicle -1.63003e-014 -1.43125e-014 0
lhumerus -44.6989 -19.153 94.5547
lradius 49.4364 -0 0
lwrist 16.5751 0 0
lhand -17.7952 2.36492 0.0655945
lfingers 7.12502 -0 0
lthumb 8.46714 32.1522 0.0600685
rclavicle -1.63003e-014 -1.43125e-014 0
rhumerus -45.6368 8.56623 -90.5593
rradius 64.8642 -0 0
rwrist 9.99456 0 0
rhand -23.8282 -18.3831 0.0199257
rfingers 7.12502 -0 0
rthumb 2.64267 -48.2895 0.0210879
412
root 4.27086 16.2007 -10.8361 2.91682 -36.5722 -3.98887
lfemur -27.3154 4.78223 -6.74717
ltibia 45.9847 -0 0
lfoot -13.933 12.7817 0.105802
ltoes -1.5443 0 0
rfemur -37.3147 -12.3026 18.7433
rtibia 66.1169 -0 0
rfoot 5.73102 -0.10107 -0.127667
rtoes 24.2066 -0 0
lowerback 5.63629 3.74344 1.6572
upperback 1.86415 5.03342 -1.44094
thorax -0.964949 2.51813 -2.70104
lowerneck -6.27468 3.16222 8.42775
upperneck 4.33953 3.54252 -0.935504
head 2.72085 1.87084 -1.63664
lclavicle -1.63003e-014 -1.43125e-014 0
lhumerus -44.6652 -19.1958 94.6238
lradius 49.2327 -0 0
lwrist 16.3106 0 0
lhand -18.2271 2.08551 0.0649748
lfingers 7.12502 -0 0
lthumb 8.05029 31.8892 0.0594605
rclavicle -1.63003e-014 -1.43125e-014 0
rhumerus -45.6603 8.26867 -90.3078
rradius 65.3913 -0 0
rwrist 10.2196 0 0
rhand -24.4745 -18.4774 0.0191105
rfingers 7.12502 -0 0
rthumb 2.01855 -48.3917 0.0203438
413
root 4.21084 16.1791 -10.743 2.77763 -36.6018 -3.9471
lfemur -27.0839 5.33127 -6.74767
ltibia 46.8691 -0 0
lfoot -14.7136 12.3315 0.0978308
ltoes -1.63766 0 0
rfemur -38.4201 -11.7077 17.8314
rtibia 65.1926 -0 0
rfoot 5.91362 0.0281654 -0.141542
rtoes 23.3982 -0 0
lowerback 5.80339 3.65423 1.73346
upperback 1.89841 4.92003 -1.44904
thorax -1.02165 2.46085 -2.75697
lowerneck -6.29416 3.36103 8.58024
upperneck 4.35942 3.80892 -1.2193
head 2.75503 1.99815 -1.74508
lclavicle -1.63003e-014 -1.43125e-014 0
lhumerus -44.6218 -19.2527 94.6954
lradius 49.0435 -0 0
lwrist 16.0403 0 0
lhand -18.656 1.80676 0.0622352
lfingers 7.12502 -0 0
lthumb 7.63644 31.6267 0.0569257
rclavicle -1.63003e-014 -1.43125e-014 0
rhumerus -45.6832 7.96587 -90.0635
rradius 65.9046 -0 0
rwrist 10.444 0 0
rhand -25.1082 -18.5846 0.0179855
rfingers 7.12502 -0 0
rthumb 1.40654 -48.5065 0.0192496
414
root 4.14903 16.1567 -10.6523 2.6595 -36.5537 -3.93061
lfemur -26.9027 5.88602 -6.72724
ltibia 47.7544 -0 0
lfoot -15.4827 11.8536 0.0868884
ltoes -1.73953 0 0
rfemur -39.4467 -11.1311 16.9274
rtibia 64.242 -0 0
rfoot 6.04221 0.13006 -0.150798
rtoes 22.4904 -0 0
lowerback 5.96496 3.56368 1.81249
upperback 1.93044 4.80544 -1.45193
thorax -1.07794 2.40288 -2.80872
lowerneck -6.31472 3.54581 8.72031
upperneck 4.36922 4.05684 -1.49051
head 2.78492 2.11634 -1.84784
lclavicle -1.63003e-014 -1.43125e-014 0
lhumerus -44.5691 -19.3247 94.7695
lradius 48.8718 -0 0
lwrist 15.7659 0 0
lhand -19.0748 1.53202 0.0575001
lfingers 7.12502 -0 0
lthumb 7.23222 31.3678 0.0525782
rclavicle -1.63003e-014 -1.43125e-014 0
rhumerus -45.7074 7.65826 -89.8291
rradius 66.3979 -0 0
rwrist 10.6651 0 0
rhand -25.7244 -18.706 0.0165388
rfingers 7.12502 -0 0
rthumb 0.811501 -48.635 0.0177925
415
root 4.08522 16.1337 -10.5641 2.56507 -36.4196 -3.94293
lfemur -26.7771 6.43738 -6.68226
ltibia 48.6303 -0 0
lfoot -16.2326 11.3508 0.0734941
ltoes -1.85473 0 0
rfemur -40.3744 -10.5803 16.0412
rtibia 63.2773 -0 0
rfoot 6.11452 0.19878 -0.154245
rtoes 21.4764 -0 0
lowerback 6.11871 3.47287 1.89343
upperback 1.95933 4.69098 -1.4493
thorax -1.13347 2.3449 -2.85538
lowerneck -6.33619 3.71352 8.84588
upperneck 4.36883 4.28216 -1.74518
head 2.81 2.22343 -1.94343
lclavicle -1.63003e-014 -1.43125e-014 0
lhumerus -44.5073 -19.4128 94.8463
lradius 48.7207 -0 0
lwrist 15.4887 0 0
lhand -19.4768 1.26462 0.0510072
lfingers 7.12502 -0 0
lthumb 6.84426 31.1157 0.0466339
rclavicle -1.63003e-014 -1.43125e-014 0
rhumerus -45.7349 7.34626 -89.6075
rradius 66.8654 -0 0
rwrist 10.8802 0 0
rhand -26.3179 -18.8428 0.0147642
rfingers 7.12502 -0 0
rthumb 0.238319 -48.7785 0.0159661
416
root 4.01921 16.1099 -10.4783 2.49679 -36.191 -3.98739
lfemur -26.7119 6.97633 -6.60923
ltibia 49.4866 -0 0
lfoot -16.9557 10.8256 0.0583918
ltoes -1.98806 0 0
rfemur -41.183 -10.0618 15.1834
rtibia 62.3106 -0 0
rfoot 6.12826 0.228479 -0.150763
rtoes 20.3497 -0 0
lowerback 6.26235 3.38285 1.97543
upperback 1.9842 4.57801 -1.44083
thorax -1.18793 2.2876 -2.89607
lowerneck -6.35842 3.86114 8.95487
upperneck 4.35818 4.48075 -1.97935
head 2.82978 2.31746 -2.03036
lclavicle -1.63003e-014 -1.43125e-014 0
lhumerus -44.4367 -19.5177 94.9256
lradius 48.5932 -0 0
lwrist 15.2106 0 0
lhand -19.8551 1.00789 0.0430998
lfingers 7.12502 -0 0
lthumb 6.47918 30.8733 0.0394044
rclavicle -1.63003e-014 -1.43125e-014 0
rhumerus -45.7676 7.03033 -89.4012
rradius 67.3011 -0 0
rwrist 11.0867 0 0
rhand -26.8837 -18.9964 0.0126695
rfingers 7.12502 -0 0
rthumb -0.308125 -48.9383 0.0137787
417
root 3.95078 16.0854 -10.395 2.45674 -35.8597 -4.06705
lfemur -26.7123 7.49393 -6.50473
ltibia 50.3131 -0 0
lfoot -17.6444 10.2807 0.0425606
ltoes -2.14431 0 0
rfemur -41.8518 -9.58115 14.3648
rtibia 61.3543 -0 0
rfoot 6.08114 0.21329 -0.139341
rtoes 19.1035 -0 0
lowerback 6.39361 3.29472 2.05763
upperback 2.00415 4.46788 -1.42619
thorax -1.24098 2.23165 -2.9299
lowerneck -6.38125 3.98563 9.0452
upperneck 4.33724 4.64853 -2.18903
head 2.84377 2.39647 -2.10714
lclavicle -1.63003e-014 -1.43125e-014 0
lhumerus -44.3577 -19.6405 95.0076
lradius 48.4923 -0 0
lwrist 14.933 0 0
lhand -20.2029 0.765165 0.0342156
lfingers 7.12502 -0 0
lthumb 6.14358 30.6439 0.0312866
rclavicle -1.63003e-014 -1.43125e-014 0
rhumerus -45.8073 6.71092 -89.2129
rradius 67.6991 -0 0
rwrist 11.2818 0 0
rhand -27.4168 -19.168 0.0102865
rfingers 7.12502 -0 0
rthumb -0.822954 -49.1156 0.0112624
418
root 3.87973 16.0601 -10.3142 2.44662 -35.4172 -4.18458
lfemur -26.7831 7.98133 -6.36537
ltibia 51.0997 -0 0
lfoot -18.2912 9.7186 0.0272207
ltoes -2.32831 0 0
rfemur -42.3597 -9.14368 13.5966
rtibia 60.4206 -0 0
rfoot 5.97084 0.147322 -0.119111
rtoes 17.7312 -0 0
lowerback 6.51022 3.20955 2.13921
upperback 2.01829 4.36193 -1.40505
thorax -1.29232 2.17775 -2.95599
lowerneck -6.40453 4.08396 9.11481
upperneck 4.30601 4.78139 -2.37022
head 2.8515 2.4585 -2.17228
lclavicle -1.63003e-014 -1.43125e-014 0
lhumerus -44.2706 -19.782 95.0923
lradius 48.4212 -0 0
lwrist 14.6576 0 0
lhand -20.5132 0.539755 0.0248714
lfingers 7.12502 -0 0
lthumb 5.8441 30.4304 0.0227493
rclavicle -1.63003e-014 -1.43125e-014 0
rhumerus -45.8559 6.38849 -89.0452
rradius 68.0532 -0 0
rwrist 11.4629 0 0
rhand -27.9122 -19.3589 0.00768219
rfingers 7.12502 -0 0
rthumb -1.30129 -49.3118 0.00848353
